<?xml version="1.0" encoding="utf-8"?>
<!-- Generator: Adobe Illustrator 22.1.0, SVG Export Plug-In . SVG Version: 6.00 Build 0)  -->
<svg version="1.1" id="Layer_1" xmlns="http://www.w3.org/2000/svg" xmlns:xlink="http://www.w3.org/1999/xlink" x="0px" y="0px"
	 viewBox="0 0 22.5 13.3" style="enable-background:new 0 0 22.5 13.3;" xml:space="preserve">
<path d="M11.6,9c-0.2,0.1-0.5,0.1-0.7,0L8.2,6.9C8,6.8,8,6.5,8.2,6.4l2.8-2.2c0.2-0.2,0.5-0.2,0.7,0l2.8,2.2c0.2,0.2,0.2,0.4,0,0.5
	L11.6,9z M22.3,3.9c0.2-0.1,0.3-0.4,0.2-0.6s-0.4-0.2-0.6-0.1l-3.7,1.5c-0.2,0.1-0.4,0-0.5-0.3l-0.6-4c0-0.2-0.2-0.4-0.4-0.4
	c-0.2,0-0.4,0.2-0.4,0.4l-0.6,4c0,0.2-0.2,0.4-0.5,0.3l-3.6-1.5c-0.2-0.1-0.6-0.1-0.8,0L7.2,4.7C7,4.8,6.8,4.6,6.7,4.4l-0.6-4
	C6.1,0.2,5.9,0,5.8,0C5.6,0,5.4,0.2,5.4,0.4l-0.6,4c0,0.2-0.2,0.4-0.5,0.3L0.6,3.2C0.4,3.1,0.1,3.2,0,3.3c-0.1,0.2,0,0.4,0.2,0.6
	l3.1,2.5c0.2,0.2,0.2,0.4,0,0.5L0.2,9.3C0,9.5-0.1,9.7,0,9.9c0.1,0.2,0.4,0.2,0.6,0.2l3.7-1.5c0.2-0.1,0.4,0,0.5,0.3l0.5,4
	c0,0.2,0.2,0.4,0.5,0.4c0.2,0,0.4-0.2,0.5-0.4l0.5-4c0-0.2,0.2-0.4,0.5-0.3l3.6,1.5c0.2,0.1,0.6,0.1,0.8,0l3.6-1.5
	c0.2-0.1,0.4,0,0.5,0.3l0.5,4c0,0.2,0.2,0.4,0.5,0.4c0.2,0,0.4-0.2,0.5-0.4l0.5-4c0-0.2,0.2-0.4,0.5-0.3l3.7,1.5
	c0.2,0.1,0.5,0,0.6-0.2c0.1-0.2,0-0.4-0.2-0.6l-3.1-2.5c-0.2-0.2-0.2-0.4,0-0.5L22.3,3.9z"/>
</svg>
